0
SECTION
2
HEADER
9
$INSUNITS
70
4
9
$ACADVER
1
AC1014
9
$HANDSEED
5
FFFF
0
ENDSEC
0
SECTION
2
TABLES
0
TABLE
2
VPORT
5
8
100
AcDbSymbolTable
0
ENDTAB
0
TABLE
2
LTYPE
5
5
100
AcDbSymbolTable
0
LTYPE
5
14
100
AcDbSymbolTableRecord
100
AcDbLinetypeTableRecord
2
BYBLOCK
70
0
0
LTYPE
5
15
100
AcDbSymbolTableRecord
100
AcDbLinetypeTableRecord
2
BYLAYER
70
0
0
ENDTAB
0
TABLE
2
LAYER
5
2
100
AcDbSymbolTable
70
2
0
LAYER
5
50
100
AcDbSymbolTableRecord
100
AcDbLayerTableRecord
2
0
70
0
6
CONTINUOUS
0
ENDTAB
0
TABLE
2
STYLE
5
3
100
AcDbSymbolTable
70
1
0
STYLE
5
11
100
AcDbSymbolTableRecord
100
AcDbTextStyleTableRecord
2
STANDARD
70
0
0
ENDTAB
0
TABLE
2
VIEW
5
6
100
AcDbSymbolTable
70
0
0
ENDTAB
0
TABLE
2
UCS
5
7
100
AcDbSymbolTable
70
0
0
ENDTAB
0
TABLE
2
APPID
5
9
100
AcDbSymbolTable
70
2
0
APPID
5
12
100
AcDbSymbolTableRecord
100
AcDbRegAppTableRecord
2
ACAD
70
0
0
ENDTAB
0
TABLE
2
DIMSTYLE
5
A
100
AcDbSymbolTable
70
1
0
ENDTAB
0
TABLE
2
BLOCK_RECORD
5
1
100
AcDbSymbolTable
70
1
0
BLOCK_RECORD
5
1F
100
AcDbSymbolTableRecord
100
AcDbBlockTableRecord
2
*MODEL_SPACE
0
BLOCK_RECORD
5
1B
100
AcDbSymbolTableRecord
100
AcDbBlockTableRecord
2
*PAPER_SPACE
0
ENDTAB
0
ENDSEC
0
SECTION
2
BLOCKS
0
BLOCK
5
20
100
AcDbEntity
100
AcDbBlockBegin
2
*MODEL_SPACE
0
ENDBLK
5
21
100
AcDbEntity
100
AcDbBlockEnd
0
BLOCK
5
1C
100
AcDbEntity
100
AcDbBlockBegin
2
*PAPER_SPACE
0
ENDBLK
5
1D
100
AcDbEntity
100
AcDbBlockEnd
0
ENDSEC
0
SECTION
2
ENTITIES
0
CIRCLE
5
100
100
AcDbEntity
8
0
100
AcDbCircle
10
34
20
13.499999999999996
30
0
40
2.5000000000000071
210
0
220
-0
230
1
0
CIRCLE
5
101
100
AcDbEntity
8
0
100
AcDbCircle
10
34
20
-13.500000000000005
30
0
40
2.5000000000000071
210
0
220
-0
230
1
0
CIRCLE
5
102
100
AcDbEntity
8
0
100
AcDbCircle
10
-34.000000000000007
20
-13.500000000000005
30
0
40
2.5000000000000071
210
0
220
-0
230
1
0
CIRCLE
5
103
100
AcDbEntity
8
0
100
AcDbCircle
10
-34
20
13.499999999999996
30
0
40
2.5000000000000071
210
0
220
-0
230
1
0
CIRCLE
5
104
100
AcDbEntity
8
0
100
AcDbCircle
10
22.185000000000041
20
-3.8582200000000011
30
0
40
3.3000000000000007
210
0
220
-0
230
1
0
CIRCLE
5
105
100
AcDbEntity
8
0
100
AcDbCircle
10
5.1850000000000396
20
-3.8582200000000011
30
0
40
3.3000000000000007
210
0
220
-0
230
1
0
CIRCLE
5
106
100
AcDbEntity
8
0
100
AcDbCircle
10
-11.814999999999966
20
-3.8582200000000011
30
0
40
3.3000000000000007
210
0
220
-0
230
1
0
LWPOLYLINE
5
107
100
AcDbEntity
8
0
100
AcDbPolyline
90
8
70
1
43
0.0
10
-32.359999999999985
20
-9.9082200000000036
42
0.4142135623730937
10
-31.859999999999992
20
-10.408220000000004
10
-22.459999999999972
20
-10.408220000000002
42
0.4142135623730957
10
-21.95999999999998
20
-9.9082200000000036
10
-21.959999999999976
20
-1.5082199999999979
42
0.41421356237309293
10
-22.459999999999969
20
-1.0082199999999997
10
-31.859999999999985
20
-1.008220000000001
42
0.41421356237309553
10
-32.359999999999985
20
-1.5082199999999979
0
LWPOLYLINE
5
108
100
AcDbEntity
8
0
100
AcDbPolyline
90
8
70
1
43
0.0
10
-38
20
16.5
10
-38.000000000000007
20
-16.500000000000007
42
0.41421356237309176
10
-37
20
-17.500000000000007
10
37
20
-17.500000000000004
42
0.41421356237309243
10
38
20
-16.500000000000004
10
38
20
16.499999999999993
42
0.41421356237309243
10
37
20
17.499999999999996
10
-37
20
17.499999999999996
42
0.41421356237309176
0
LWPOLYLINE
5
109
100
AcDbEntity
8
0
100
AcDbPolyline
90
8
70
1
43
0.0
10
-37.5
20
13.499999999999996
10
-37.500000000000007
20
-13.500000000000005
42
-2.4142135623730949
10
-34.000000000000007
20
-17.000000000000007
10
34
20
-17
42
-2.4142135623730949
10
37.5
20
-13.500000000000005
10
37.5
20
13.499999999999996
42
-2.4142135623730949
10
34
20
16.999999999999996
10
-34
20
16.999999999999996
42
-2.4142135623730949
0
CIRCLE
5
110
100
AcDbEntity
8
0
100
AcDbCircle
10
5.1850000000000396
20
-3.8582200000000011
30
0
40
3.75
210
0
220
0
230
1
0
CIRCLE
5
111
100
AcDbEntity
8
0
100
AcDbCircle
10
22.185000000000041
20
-3.8582200000000011
30
0
40
3.75
210
0
220
0
230
1
0
CIRCLE
5
112
100
AcDbEntity
8
0
100
AcDbCircle
10
-11.814999999999966
20
-3.8582200000000011
30
0
40
3.75
210
0
220
0
230
1
0
LWPOLYLINE
5
113
100
AcDbEntity
8
0
100
AcDbPolyline
90
8
70
1
43
0.0
10
-21.759999999999977
20
-1.5082199999999979
42
0.41421356237309354
10
-22.459999999999969
20
-0.80821999999999883
10
-31.859999999999985
20
-0.80822000000000105
42
0.41421356237309548
10
-32.559999999999981
20
-1.5082199999999979
10
-32.559999999999988
20
-9.9082200000000036
42
0.4142135623730922
10
-31.859999999999996
20
-10.608220000000003
10
-22.459999999999972
20
-10.608220000000001
42
0.41421356237309548
10
-21.759999999999977
20
-9.9082200000000036
0
ENDSEC
0
SECTION
2
OBJECTS
0
DICTIONARY
5
C
100
AcDbDictionary
3
ACAD_GROUP
350
D
3
ACAD_MLINESTYLE
350
17
0
DICTIONARY
5
D
100
AcDbDictionary
0
DICTIONARY
5
1A
330
C
100
AcDbDictionary
0
DICTIONARY
5
17
100
AcDbDictionary
0
ENDSEC
0
EOF
