%TF.GenerationSoftware,KiCad,Pcbnew,8.0.1*%
%TF.CreationDate,2024-11-06T07:31:16-05:00*%
%TF.ProjectId,SilverSat_Ground_Station,53696c76-6572-4536-9174-5f47726f756e,1.0 Beta*%
%TF.SameCoordinates,Original*%
%TF.FileFunction,Paste,Top*%
%TF.FilePolarity,Positive*%
%FSLAX46Y46*%
G04 Gerber Fmt 4.6, Leading zero omitted, Abs format (unit mm)*
G04 Created by KiCad (PCBNEW 8.0.1) date 2024-11-06 07:31:16*
%MOMM*%
%LPD*%
G01*
G04 APERTURE LIST*
G04 Aperture macros list*
%AMRoundRect*
0 Rectangle with rounded corners*
0 $1 Rounding radius*
0 $2 $3 $4 $5 $6 $7 $8 $9 X,Y pos of 4 corners*
0 Add a 4 corners polygon primitive as box body*
4,1,4,$2,$3,$4,$5,$6,$7,$8,$9,$2,$3,0*
0 Add four circle primitives for the rounded corners*
1,1,$1+$1,$2,$3*
1,1,$1+$1,$4,$5*
1,1,$1+$1,$6,$7*
1,1,$1+$1,$8,$9*
0 Add four rect primitives between the rounded corners*
20,1,$1+$1,$2,$3,$4,$5,0*
20,1,$1+$1,$4,$5,$6,$7,0*
20,1,$1+$1,$6,$7,$8,$9,0*
20,1,$1+$1,$8,$9,$2,$3,0*%
G04 Aperture macros list end*
%ADD10RoundRect,0.147500X-0.172500X0.147500X-0.172500X-0.147500X0.172500X-0.147500X0.172500X0.147500X0*%
%ADD11RoundRect,0.140000X-0.170000X0.140000X-0.170000X-0.140000X0.170000X-0.140000X0.170000X0.140000X0*%
%ADD12RoundRect,0.225000X-0.225000X-0.250000X0.225000X-0.250000X0.225000X0.250000X-0.225000X0.250000X0*%
%ADD13RoundRect,0.225000X0.225000X0.250000X-0.225000X0.250000X-0.225000X-0.250000X0.225000X-0.250000X0*%
%ADD14RoundRect,0.250000X0.650000X-0.325000X0.650000X0.325000X-0.650000X0.325000X-0.650000X-0.325000X0*%
%ADD15RoundRect,0.200000X-0.275000X0.200000X-0.275000X-0.200000X0.275000X-0.200000X0.275000X0.200000X0*%
%ADD16RoundRect,0.140000X-0.140000X-0.170000X0.140000X-0.170000X0.140000X0.170000X-0.140000X0.170000X0*%
%ADD17R,1.750000X0.450000*%
%ADD18RoundRect,0.147500X-0.147500X-0.172500X0.147500X-0.172500X0.147500X0.172500X-0.147500X0.172500X0*%
%ADD19RoundRect,0.135000X0.135000X0.185000X-0.135000X0.185000X-0.135000X-0.185000X0.135000X-0.185000X0*%
%ADD20RoundRect,0.218750X0.218750X0.256250X-0.218750X0.256250X-0.218750X-0.256250X0.218750X-0.256250X0*%
%ADD21RoundRect,0.140000X0.170000X-0.140000X0.170000X0.140000X-0.170000X0.140000X-0.170000X-0.140000X0*%
%ADD22RoundRect,0.200000X-0.200000X-0.275000X0.200000X-0.275000X0.200000X0.275000X-0.200000X0.275000X0*%
%ADD23RoundRect,0.225000X-0.250000X0.225000X-0.250000X-0.225000X0.250000X-0.225000X0.250000X0.225000X0*%
%ADD24RoundRect,0.225000X0.250000X-0.225000X0.250000X0.225000X-0.250000X0.225000X-0.250000X-0.225000X0*%
%ADD25R,0.740000X2.400000*%
%ADD26RoundRect,0.375000X-0.375000X0.625000X-0.375000X-0.625000X0.375000X-0.625000X0.375000X0.625000X0*%
%ADD27RoundRect,0.500000X-1.400000X0.500000X-1.400000X-0.500000X1.400000X-0.500000X1.400000X0.500000X0*%
%ADD28RoundRect,0.135000X0.185000X-0.135000X0.185000X0.135000X-0.185000X0.135000X-0.185000X-0.135000X0*%
%ADD29RoundRect,0.237500X-0.287500X-0.237500X0.287500X-0.237500X0.287500X0.237500X-0.287500X0.237500X0*%
%ADD30RoundRect,0.100000X0.637500X0.100000X-0.637500X0.100000X-0.637500X-0.100000X0.637500X-0.100000X0*%
%ADD31RoundRect,0.140000X0.140000X0.170000X-0.140000X0.170000X-0.140000X-0.170000X0.140000X-0.170000X0*%
%ADD32R,1.803400X3.352800*%
%ADD33RoundRect,0.200000X0.275000X-0.200000X0.275000X0.200000X-0.275000X0.200000X-0.275000X-0.200000X0*%
%ADD34RoundRect,0.200000X0.200000X0.275000X-0.200000X0.275000X-0.200000X-0.275000X0.200000X-0.275000X0*%
%ADD35RoundRect,0.150000X-0.512500X-0.150000X0.512500X-0.150000X0.512500X0.150000X-0.512500X0.150000X0*%
%ADD36RoundRect,0.075000X-0.662500X-0.075000X0.662500X-0.075000X0.662500X0.075000X-0.662500X0.075000X0*%
%ADD37RoundRect,0.075000X-0.075000X-0.662500X0.075000X-0.662500X0.075000X0.662500X-0.075000X0.662500X0*%
%ADD38RoundRect,0.135000X-0.185000X0.135000X-0.185000X-0.135000X0.185000X-0.135000X0.185000X0.135000X0*%
%ADD39RoundRect,0.243750X-0.243750X-0.456250X0.243750X-0.456250X0.243750X0.456250X-0.243750X0.456250X0*%
%ADD40R,1.500000X0.800000*%
%ADD41R,1.350000X0.400000*%
%ADD42R,1.900000X1.500000*%
%ADD43R,0.800000X0.900000*%
%ADD44RoundRect,0.135000X-0.135000X-0.185000X0.135000X-0.185000X0.135000X0.185000X-0.135000X0.185000X0*%
%ADD45RoundRect,0.147500X0.147500X0.172500X-0.147500X0.172500X-0.147500X-0.172500X0.147500X-0.172500X0*%
%ADD46R,2.900000X5.400000*%
%ADD47RoundRect,0.250000X-0.650000X0.325000X-0.650000X-0.325000X0.650000X-0.325000X0.650000X0.325000X0*%
%ADD48RoundRect,0.218750X-0.218750X-0.256250X0.218750X-0.256250X0.218750X0.256250X-0.218750X0.256250X0*%
%ADD49RoundRect,0.225000X0.225000X0.225000X-0.225000X0.225000X-0.225000X-0.225000X0.225000X-0.225000X0*%
%ADD50RoundRect,0.062500X0.337500X0.062500X-0.337500X0.062500X-0.337500X-0.062500X0.337500X-0.062500X0*%
%ADD51RoundRect,0.062500X0.062500X0.337500X-0.062500X0.337500X-0.062500X-0.337500X0.062500X-0.337500X0*%
%ADD52RoundRect,0.250000X-0.325000X-0.650000X0.325000X-0.650000X0.325000X0.650000X-0.325000X0.650000X0*%
G04 APERTURE END LIST*
D10*
%TO.C,L5*%
X150083000Y-77063000D03*
X150083000Y-78033000D03*
%TD*%
D11*
%TO.C,C70*%
X134647000Y-79088000D03*
X134647000Y-80048000D03*
%TD*%
D12*
%TO.C,C10*%
X151822000Y-53223000D03*
X153372000Y-53223000D03*
%TD*%
D13*
%TO.C,C50*%
X103447000Y-89798000D03*
X101897000Y-89798000D03*
%TD*%
D12*
%TO.C,C40*%
X94115000Y-42374000D03*
X95665000Y-42374000D03*
%TD*%
D11*
%TO.C,C24*%
X153797000Y-72263000D03*
X153797000Y-73223000D03*
%TD*%
D12*
%TO.C,C56*%
X108072000Y-47548000D03*
X109622000Y-47548000D03*
%TD*%
%TO.C,C49*%
X116747000Y-91363000D03*
X118297000Y-91363000D03*
%TD*%
D13*
%TO.C,C6*%
X138443000Y-58293000D03*
X136893000Y-58293000D03*
%TD*%
%TO.C,C14*%
X144412000Y-68679000D03*
X142862000Y-68679000D03*
%TD*%
D14*
%TO.C,C5*%
X145472000Y-49048000D03*
X145472000Y-46098000D03*
%TD*%
D15*
%TO.C,R10*%
X90027000Y-78945000D03*
X90027000Y-80595000D03*
%TD*%
D16*
%TO.C,C38*%
X167315000Y-76299000D03*
X168275000Y-76299000D03*
%TD*%
D17*
%TO.C,U4*%
X119170000Y-52739000D03*
X119170000Y-52089000D03*
X119170000Y-51439000D03*
X119170000Y-50789000D03*
X119170000Y-50139000D03*
X119170000Y-49489000D03*
X119170000Y-48839000D03*
X119170000Y-48189000D03*
X119170000Y-47539000D03*
X119170000Y-46889000D03*
X119170000Y-46239000D03*
X119170000Y-45589000D03*
X119170000Y-44939000D03*
X119170000Y-44289000D03*
X111970000Y-44289000D03*
X111970000Y-44939000D03*
X111970000Y-45589000D03*
X111970000Y-46239000D03*
X111970000Y-46889000D03*
X111970000Y-47539000D03*
X111970000Y-48189000D03*
X111970000Y-48839000D03*
X111970000Y-49489000D03*
X111970000Y-50139000D03*
X111970000Y-50789000D03*
X111970000Y-51439000D03*
X111970000Y-52089000D03*
X111970000Y-52739000D03*
%TD*%
D18*
%TO.C,L11*%
X162677000Y-73123000D03*
X163647000Y-73123000D03*
%TD*%
D19*
%TO.C,R14*%
X155733000Y-83695000D03*
X154713000Y-83695000D03*
%TD*%
D20*
%TO.C,L2*%
X146075500Y-71854000D03*
X144500500Y-71854000D03*
%TD*%
D21*
%TO.C,C32*%
X160060000Y-73087000D03*
X160060000Y-72127000D03*
%TD*%
D22*
%TO.C,R31*%
X173889699Y-48652000D03*
X175539699Y-48652000D03*
%TD*%
D13*
%TO.C,C17*%
X149747000Y-83798000D03*
X148197000Y-83798000D03*
%TD*%
D12*
%TO.C,C46*%
X107047000Y-42548000D03*
X108597000Y-42548000D03*
%TD*%
D23*
%TO.C,C55*%
X107172000Y-49448000D03*
X107172000Y-50998000D03*
%TD*%
D24*
%TO.C,C42*%
X135608001Y-94825499D03*
X135608001Y-93275499D03*
%TD*%
D11*
%TO.C,C26*%
X151172000Y-77068000D03*
X151172000Y-78028000D03*
%TD*%
D12*
%TO.C,C47*%
X103247000Y-50948000D03*
X104797000Y-50948000D03*
%TD*%
D25*
%TO.C,J7*%
X115532000Y-79398000D03*
X115532000Y-75498000D03*
X116802000Y-79398000D03*
X116802000Y-75498000D03*
X118072000Y-79398000D03*
X118072000Y-75498000D03*
X119342000Y-79398000D03*
X119342000Y-75498000D03*
X120612000Y-79398000D03*
X120612000Y-75498000D03*
%TD*%
D10*
%TO.C,L4*%
X150072000Y-74853000D03*
X150072000Y-75823000D03*
%TD*%
D26*
%TO.C,U7*%
X103447000Y-92798000D03*
X101147000Y-92798000D03*
X98847000Y-92798000D03*
D27*
X101147000Y-99098000D03*
%TD*%
D28*
%TO.C,R45*%
X134647000Y-82708000D03*
X134647000Y-81688000D03*
%TD*%
D13*
%TO.C,C51*%
X98797000Y-90048000D03*
X97247000Y-90048000D03*
%TD*%
D29*
%TO.C,FB1*%
X103247000Y-49448000D03*
X104997000Y-49448000D03*
%TD*%
D13*
%TO.C,C11*%
X132711500Y-53721500D03*
X131161500Y-53721500D03*
%TD*%
D30*
%TO.C,U9*%
X169938500Y-49713000D03*
X169938500Y-49063000D03*
X169938500Y-48413000D03*
X169938500Y-47763000D03*
X169938500Y-47113000D03*
X169938500Y-46463000D03*
X169938500Y-45813000D03*
X164213500Y-45813000D03*
X164213500Y-46463000D03*
X164213500Y-47113000D03*
X164213500Y-47763000D03*
X164213500Y-48413000D03*
X164213500Y-49063000D03*
X164213500Y-49713000D03*
%TD*%
D22*
%TO.C,R32*%
X173889699Y-49991000D03*
X175539699Y-49991000D03*
%TD*%
D16*
%TO.C,C36*%
X162705000Y-71980000D03*
X163665000Y-71980000D03*
%TD*%
D31*
%TO.C,C34*%
X161377000Y-77123000D03*
X160417000Y-77123000D03*
%TD*%
D32*
%TO.C,C43*%
X142722000Y-98328700D03*
X142722000Y-89667300D03*
%TD*%
D22*
%TO.C,R28*%
X173927000Y-44107000D03*
X175577000Y-44107000D03*
%TD*%
D33*
%TO.C,R17*%
X140622000Y-77273000D03*
X140622000Y-75623000D03*
%TD*%
D21*
%TO.C,C16*%
X146559000Y-83413000D03*
X146559000Y-82453000D03*
%TD*%
D16*
%TO.C,C27*%
X155730000Y-73124000D03*
X156690000Y-73124000D03*
%TD*%
D34*
%TO.C,R21*%
X93249500Y-49809500D03*
X91599500Y-49809500D03*
%TD*%
D24*
%TO.C,C23*%
X144907000Y-82348000D03*
X144907000Y-80798000D03*
%TD*%
D35*
%TO.C,U5*%
X96140500Y-38882500D03*
X96140500Y-39832500D03*
X96140500Y-40782500D03*
X98415500Y-40782500D03*
X98415500Y-39832500D03*
X98415500Y-38882500D03*
%TD*%
D21*
%TO.C,C35*%
X161457000Y-73087000D03*
X161457000Y-72127000D03*
%TD*%
D12*
%TO.C,C3*%
X134577500Y-47752500D03*
X136127500Y-47752500D03*
%TD*%
D18*
%TO.C,L6*%
X154887000Y-75798000D03*
X155857000Y-75798000D03*
%TD*%
D23*
%TO.C,C22*%
X139047000Y-75648000D03*
X139047000Y-77198000D03*
%TD*%
D36*
%TO.C,U2*%
X141097000Y-53229000D03*
X141097000Y-53729000D03*
X141097000Y-54229000D03*
X141097000Y-54729000D03*
X141097000Y-55229000D03*
X141097000Y-55729000D03*
X141097000Y-56229000D03*
X141097000Y-56729000D03*
X141097000Y-57229000D03*
X141097000Y-57729000D03*
X141097000Y-58229000D03*
X141097000Y-58729000D03*
D37*
X142509500Y-60141500D03*
X143009500Y-60141500D03*
X143509500Y-60141500D03*
X144009500Y-60141500D03*
X144509500Y-60141500D03*
X145009500Y-60141500D03*
X145509500Y-60141500D03*
X146009500Y-60141500D03*
X146509500Y-60141500D03*
X147009500Y-60141500D03*
X147509500Y-60141500D03*
X148009500Y-60141500D03*
D36*
X149422000Y-58729000D03*
X149422000Y-58229000D03*
X149422000Y-57729000D03*
X149422000Y-57229000D03*
X149422000Y-56729000D03*
X149422000Y-56229000D03*
X149422000Y-55729000D03*
X149422000Y-55229000D03*
X149422000Y-54729000D03*
X149422000Y-54229000D03*
X149422000Y-53729000D03*
X149422000Y-53229000D03*
D37*
X148009500Y-51816500D03*
X147509500Y-51816500D03*
X147009500Y-51816500D03*
X146509500Y-51816500D03*
X146009500Y-51816500D03*
X145509500Y-51816500D03*
X145009500Y-51816500D03*
X144509500Y-51816500D03*
X144009500Y-51816500D03*
X143509500Y-51816500D03*
X143009500Y-51816500D03*
X142509500Y-51816500D03*
%TD*%
D38*
%TO.C,R39*%
X166785000Y-71045000D03*
X166785000Y-72065000D03*
%TD*%
D22*
%TO.C,R27*%
X173927000Y-45631000D03*
X175577000Y-45631000D03*
%TD*%
D31*
%TO.C,C29*%
X153552000Y-77098000D03*
X152592000Y-77098000D03*
%TD*%
D39*
%TO.C,F2*%
X94215500Y-36620000D03*
X96090500Y-36620000D03*
%TD*%
D34*
%TO.C,R16*%
X148145000Y-80811000D03*
X146495000Y-80811000D03*
%TD*%
D13*
%TO.C,C15*%
X144399000Y-70330000D03*
X142849000Y-70330000D03*
%TD*%
D31*
%TO.C,C69*%
X151607000Y-87348000D03*
X150647000Y-87348000D03*
%TD*%
D40*
%TO.C,Y1*%
X136127500Y-51677500D03*
X136127500Y-50177500D03*
%TD*%
D34*
%TO.C,R20*%
X93110500Y-56374500D03*
X91460500Y-56374500D03*
%TD*%
D12*
%TO.C,C1*%
X91157000Y-71642000D03*
X92707000Y-71642000D03*
%TD*%
D10*
%TO.C,L3*%
X151765000Y-72258000D03*
X151765000Y-73228000D03*
%TD*%
D21*
%TO.C,C21*%
X149098000Y-72080000D03*
X149098000Y-71120000D03*
%TD*%
D22*
%TO.C,R18*%
X94065000Y-44152000D03*
X95715000Y-44152000D03*
%TD*%
D41*
%TO.C,J1*%
X91297000Y-65048000D03*
X91297000Y-65698000D03*
X91297000Y-66348000D03*
X91297000Y-66998000D03*
X91297000Y-67648000D03*
D42*
X88597000Y-65348000D03*
X88597000Y-67348000D03*
%TD*%
D12*
%TO.C,C48*%
X116744500Y-93103301D03*
X118294500Y-93103301D03*
%TD*%
D41*
%TO.C,J9*%
X91313000Y-38748000D03*
X91313000Y-39398000D03*
X91313000Y-40048000D03*
X91313000Y-40698000D03*
X91313000Y-41348000D03*
D42*
X88613000Y-39048000D03*
X88613000Y-41048000D03*
%TD*%
D12*
%TO.C,C39*%
X107061000Y-45593000D03*
X108611000Y-45593000D03*
%TD*%
D24*
%TO.C,C19*%
X141147000Y-82348000D03*
X141147000Y-80798000D03*
%TD*%
D18*
%TO.C,L10*%
X160387000Y-75773000D03*
X161357000Y-75773000D03*
%TD*%
D12*
%TO.C,C2*%
X134590500Y-53594500D03*
X136140500Y-53594500D03*
%TD*%
%TO.C,C44*%
X103247000Y-47948000D03*
X104797000Y-47948000D03*
%TD*%
D43*
%TO.C,X1*%
X152824000Y-83633000D03*
X152824000Y-82233000D03*
X151724000Y-82233000D03*
X151724000Y-83633000D03*
%TD*%
D22*
%TO.C,R29*%
X173889699Y-51341000D03*
X175539699Y-51341000D03*
%TD*%
%TO.C,R30*%
X173927000Y-47155000D03*
X175577000Y-47155000D03*
%TD*%
%TO.C,R33*%
X159972000Y-47773000D03*
X161622000Y-47773000D03*
%TD*%
D44*
%TO.C,R38*%
X165710000Y-73105000D03*
X166730000Y-73105000D03*
%TD*%
D22*
%TO.C,R34*%
X159972000Y-45948000D03*
X161622000Y-45948000D03*
%TD*%
D11*
%TO.C,C25*%
X151172000Y-74858000D03*
X151172000Y-75818000D03*
%TD*%
D13*
%TO.C,C18*%
X149747000Y-82298000D03*
X148197000Y-82298000D03*
%TD*%
D24*
%TO.C,C68*%
X143022000Y-82348000D03*
X143022000Y-80798000D03*
%TD*%
D22*
%TO.C,R11*%
X148983000Y-49346000D03*
X150633000Y-49346000D03*
%TD*%
D45*
%TO.C,L8*%
X158767000Y-73115000D03*
X157797000Y-73115000D03*
%TD*%
D22*
%TO.C,R1*%
X88059000Y-71642000D03*
X89709000Y-71642000D03*
%TD*%
D35*
%TO.C,U1*%
X94731000Y-65139000D03*
X94731000Y-66089000D03*
X94731000Y-67039000D03*
X97006000Y-67039000D03*
X97006000Y-66089000D03*
X97006000Y-65139000D03*
%TD*%
D18*
%TO.C,L7*%
X154877000Y-77098000D03*
X155847000Y-77098000D03*
%TD*%
D11*
%TO.C,C31*%
X157419000Y-77118000D03*
X157419000Y-78078000D03*
%TD*%
D21*
%TO.C,C33*%
X158999000Y-75763000D03*
X158999000Y-74803000D03*
%TD*%
D46*
%TO.C,L12*%
X166222000Y-94048000D03*
X156522000Y-94048000D03*
%TD*%
D16*
%TO.C,C28*%
X152592000Y-75791000D03*
X153552000Y-75791000D03*
%TD*%
D10*
%TO.C,L9*%
X158972000Y-77113000D03*
X158972000Y-78083000D03*
%TD*%
D47*
%TO.C,C13*%
X143122000Y-46098000D03*
X143122000Y-49048000D03*
%TD*%
D12*
%TO.C,C45*%
X107047000Y-44073000D03*
X108597000Y-44073000D03*
%TD*%
D44*
%TO.C,R44*%
X147912000Y-87348000D03*
X148932000Y-87348000D03*
%TD*%
D15*
%TO.C,R12*%
X147522000Y-47823000D03*
X147522000Y-49473000D03*
%TD*%
%TO.C,R13*%
X116822000Y-70398000D03*
X116822000Y-72048000D03*
%TD*%
D16*
%TO.C,C20*%
X150523000Y-80236000D03*
X151483000Y-80236000D03*
%TD*%
D13*
%TO.C,C9*%
X132711500Y-55499500D03*
X131161500Y-55499500D03*
%TD*%
D48*
%TO.C,L1*%
X136880500Y-56642000D03*
X138455500Y-56642000D03*
%TD*%
D13*
%TO.C,C12*%
X144097000Y-62023000D03*
X142547000Y-62023000D03*
%TD*%
D11*
%TO.C,C30*%
X157447000Y-74803000D03*
X157447000Y-75763000D03*
%TD*%
D49*
%TO.C,U3*%
X146305000Y-77329000D03*
X146305000Y-76209000D03*
X146305000Y-75089000D03*
X145185000Y-77329000D03*
X145185000Y-76209000D03*
X145185000Y-75089000D03*
X144065000Y-77329000D03*
X144065000Y-76209000D03*
X144065000Y-75089000D03*
D50*
X147635000Y-77709000D03*
X147635000Y-77209000D03*
X147635000Y-76709000D03*
X147635000Y-76209000D03*
X147635000Y-75709000D03*
X147635000Y-75209000D03*
X147635000Y-74709000D03*
D51*
X146685000Y-73759000D03*
X146185000Y-73759000D03*
X145685000Y-73759000D03*
X145185000Y-73759000D03*
X144685000Y-73759000D03*
X144185000Y-73759000D03*
X143685000Y-73759000D03*
D50*
X142735000Y-74709000D03*
X142735000Y-75209000D03*
X142735000Y-75709000D03*
X142735000Y-76209000D03*
X142735000Y-76709000D03*
X142735000Y-77209000D03*
X142735000Y-77709000D03*
D51*
X143685000Y-78659000D03*
X144185000Y-78659000D03*
X144685000Y-78659000D03*
X145185000Y-78659000D03*
X145685000Y-78659000D03*
X146185000Y-78659000D03*
X146685000Y-78659000D03*
%TD*%
D52*
%TO.C,C7*%
X132002000Y-59944000D03*
X134952000Y-59944000D03*
%TD*%
D24*
%TO.C,C4*%
X149046000Y-47848000D03*
X149046000Y-46298000D03*
%TD*%
D11*
%TO.C,C37*%
X164660000Y-73100000D03*
X164660000Y-74060000D03*
%TD*%
D39*
%TO.C,F1*%
X93718500Y-63239000D03*
X95593500Y-63239000D03*
%TD*%
D15*
%TO.C,R15*%
X146685000Y-68616000D03*
X146685000Y-70266000D03*
%TD*%
D38*
%TO.C,R37*%
X165660000Y-71030000D03*
X165660000Y-72050000D03*
%TD*%
D16*
%TO.C,C67*%
X167736000Y-73115000D03*
X168696000Y-73115000D03*
%TD*%
D23*
%TO.C,C41*%
X116567500Y-96438000D03*
X116567500Y-97988000D03*
%TD*%
M02*
